/* XPM */
static char *_5266_77dfc785555b9738458cfbbd4ef3e1c57b68be6371e5681562fd2a9717198077[] = {
/* columns rows colors chars-per-pixel */
"32 32 112 2 ",
"   c black",
".  c #010101",
"X  c #020202",
"o  c gray1",
"O  c #040404",
"+  c gray3",
"@  c #090909",
"#  c gray4",
"$  c #0C0C0C",
"%  c gray5",
"&  c #101010",
"*  c #111111",
"=  c gray7",
"-  c #131313",
";  c #151515",
":  c #161616",
">  c gray11",
",  c #1D1D1D",
"<  c #1E1E1E",
"1  c gray12",
"2  c #202020",
"3  c #232323",
"4  c gray14",
"5  c #252525",
"6  c gray15",
"7  c gray16",
"8  c #2C2C2C",
"9  c gray18",
"0  c #2F2F2F",
"q  c gray21",
"w  c #373737",
"e  c #3C3C3C",
"r  c gray25",
"t  c #414141",
"y  c gray27",
"u  c #464646",
"i  c gray28",
"p  c #484848",
"a  c gray29",
"s  c gray30",
"d  c gray31",
"f  c #505050",
"g  c #535353",
"h  c gray33",
"j  c gray34",
"k  c #585858",
"l  c gray36",
"z  c gray38",
"x  c #626262",
"c  c #656565",
"v  c gray40",
"b  c #686868",
"n  c #727272",
"m  c gray45",
"M  c #767676",
"N  c #777777",
"B  c gray47",
"V  c #7C7C7C",
"C  c gray50",
"Z  c #808080",
"A  c gray52",
"S  c gray54",
"D  c #8B8B8B",
"F  c gray56",
"G  c #909090",
"H  c gray58",
"J  c #989898",
"K  c #9A9A9A",
"L  c #9D9D9D",
"P  c #9F9F9F",
"I  c gray64",
"U  c #A9A9A9",
"Y  c gray67",
"T  c #ACACAC",
"R  c #AEAEAE",
"E  c #AFAFAF",
"W  c gray69",
"Q  c #B1B1B1",
"!  c #B7B7B7",
"~  c gray74",
"^  c gray75",
"/  c #C3C3C3",
"(  c gray77",
")  c #C5C5C5",
"_  c #CACACA",
"`  c #CBCBCB",
"'  c #CECECE",
"]  c gray81",
"[  c #D5D5D5",
"{  c #D7D7D7",
"}  c gray86",
"|  c #DDDDDD",
" . c #E1E1E1",
".. c gray89",
"X. c #E6E6E6",
"o. c gray91",
"O. c gray92",
"+. c gray93",
"@. c #EFEFEF",
"#. c gray94",
"$. c #F1F1F1",
"%. c gray95",
"&. c #F4F4F4",
"*. c gray96",
"=. c gray97",
"-. c #F9F9F9",
";. c gray98",
":. c #FBFBFB",
">. c gray99",
",. c #FDFDFD",
"<. c #FEFEFE",
"1. c white",
/* pixels */
"1.1.1.1.1.1.1.1.1.1.1.1.1.1.1.1.1.1.1.1.1.1.1.1.1.1.1.1.1.1.1.1.",
"1.1.1.1.1.1.1.1.1.1.1.1.1.1.1.1.1.1.1.1.1.1.1.1.1.1.1.1.1.1.1.1.",
"1.1.1.1.1.1.1.1.1.1.1.1.1.1.1.1.1.1.1.1.1.1.1.1.1.1.1.1.1.1.1.1.",
"1.1.1.1.1.1.1.1.1.1.1.1.1.1.1.1.1.1.1.1.1.1.1.1.1.1.1.1.1.1.1.1.",
"1.1.1.1.1.1.1.1.1.1.1.1.1.1.1.1.1.1.1.1.1.1.@.Z k [ 1.1.1.1.1.1.",
"1.1.1.1.1.1.1.1.1.[ F ` 1.1.1.1.1.1.1.1.1.o.z O   7 ( >.1.1.1.1.",
"1.1.1.1.1.1.1.1.1.c   a 1.1.1.1.1.1.1.1.:.M #     X t [ 1.1.1.1.",
"1.1.1.1.1.1.1.1.+.;   @ } 1.1.1.1.1.1.1.Z $         O p -.1.1.1.",
"1.1.1.1.1.1.1.1.F       b 1.1.1.1.1.1.K                 p 1.1.1.",
"1.1.1.1.1.1.1.&.<       $ o.1.1.1.;.E >                   m #.1.",
"1.1.1.1.1.1.1.R           G 1.1.1.) 0                     * D &.",
"1.1.1.1.1.1.-.g           t +.1.1.f .                       < ' ",
"1.1.1.1.1.1.` 6   O > #   > ! 1.1.4                           ^ ",
"1.1.1.1.1.>.D @   , A 5   o M =.1.U u r r r r r r r r r r r n o.",
"1.1.1.1.1.X.s     e  .a     w } 1.1.1.1.1.1.1.1.1.1.1.1.1.1.1.1.",
"1.1.1.1.1.( -     B <.F     + T 1.1.1.1.1.1.1.1.1.1.1.1.1.1.1.1.",
"1.1.1.1.1.N       / 1.[       h 1.1.1.1.1.1.1.1.1.1.1.1.1.1.1.1.",
"1.1.1.1.*.4     > ;.1.1.q     % ..1.1.1.1.1.1.1.1.1.1.1.1.1.1.1.",
"1.1.1.1.I       C 1.1.1.P       m 1.1.1.1.1.1.1.1.1.1.1.1.1.1.1.",
"1.1.1.;.9     O ..1.1.1.$.=     & o.1.1.1.1.1.1.1.1.1.1.1.1.1.1.",
"1.1.1./                           H 1.1.1.1.1.1.1.1.1.1.1.1.1.1.",
"1.1.:.v                           i %.1.1.1.1.1.1.1.1.1.1.1.1.1.",
"1.1.{ 8     # , 2 2 2 2 2 < $     1 ~ 1.1.1.1.1.1.1.1.1.1.1.1.1.",
"1.1.J $     d / ] ] ] ] ] ` x .   O V -.1.1.1.1.1.1.1.1.1.1.1.1.",
"1.O.j     + F 1.1.1.1.1.1.1.Y :     e | 1.1.1.1.1.1.1.1.1.1.1.1.",
"1._ 1     3 ) 1.1.1.1.1.1.1...q     @ W 1.1.1.1.1.1.1.1.1.1.1.1.",
"1.S X     y $.1.1.1.1.1.1.1.,.n       l 1.1.1.1.1.1.1.1.1.1.1.1.",
"1.Q F F F ^ 1.1.1.1.1.1.1.1.1.{ F F F L 1.1.1.1.1.1.1.1.1.1.1.1.",
"1.1.1.1.1.1.1.1.1.1.1.1.1.1.1.1.1.1.1.1.1.1.1.1.1.1.1.1.1.1.1.1.",
"1.1.1.1.1.1.1.1.1.1.1.1.1.1.1.1.1.1.1.1.1.1.1.1.1.1.1.1.1.1.1.1.",
"1.1.1.1.1.1.1.1.1.1.1.1.1.1.1.1.1.1.1.1.1.1.1.1.1.1.1.1.1.1.1.1.",
"1.1.1.1.1.1.1.1.1.1.1.1.1.1.1.1.1.1.1.1.1.1.1.1.1.1.1.1.1.1.1.1."
};
