/* XPM */
static char *_3191_97f91c6feb621101a5c4ce3ce4147325f81c9ca475fa39b355e3737c17597b30[] = {
/* columns rows colors chars-per-pixel */
"50 50 72 1 ",
"  c black",
". c #010101",
"X c gray1",
"o c gray2",
"O c #060606",
"+ c #070707",
"@ c gray3",
"# c #090909",
"$ c gray4",
"% c #0B0B0B",
"& c #0C0C0C",
"* c gray9",
"= c #181818",
"- c gray11",
"; c #1D1D1D",
": c #1E1E1E",
"> c #222222",
", c #252525",
"< c gray15",
"1 c gray16",
"2 c #2A2A2A",
"3 c gray17",
"4 c #2C2C2C",
"5 c #2D2D2D",
"6 c #353535",
"7 c gray23",
"8 c #4C4C4C",
"9 c #585858",
"0 c gray35",
"q c gray37",
"w c #5F5F5F",
"e c #646464",
"r c #676767",
"t c #686868",
"y c #6A6A6A",
"u c gray42",
"i c gray43",
"p c #777777",
"a c gray47",
"s c #797979",
"d c #868686",
"f c #888888",
"g c #B4B4B4",
"h c gray71",
"j c gray72",
"k c gray74",
"l c gray",
"z c gray75",
"x c #C3C3C3",
"c c gray77",
"v c #C6C6C6",
"b c gray78",
"n c #CBCBCB",
"m c #CECECE",
"M c gray81",
"N c #D5D5D5",
"B c #DFDFDF",
"V c #E6E6E6",
"C c #EAEAEA",
"Z c gray92",
"A c #ECECEC",
"S c gray94",
"D c #F1F1F1",
"F c gray95",
"G c gray96",
"H c gray97",
"J c gray98",
"K c #FBFBFB",
"L c gray99",
"P c #FDFDFD",
"I c #FEFEFE",
"U c white",
/* pixels */
"                                                  ",
"                        XO                        ",
"                        >8o                       ",
"                        px:                       ",
"                       <mJr                       ",
"                      +fHUv=                      ",
"                     .6nUUFpo                     ",
"                     &aSUUUx4.                    ",
"                     5lPUUUZi$                    ",
"                     yDUUUULg,                    ",
"                     MUUUUUUD9                    ",
"                   XuUUUUUUUUj#                   ",
"                   2VUUUUUUUUHq                   ",
"                  @dUUUUUUUUUUB;                  ",
"                 .6nUUUUUUUUUUUpo                 ",
"                 %sDUUUUUUUUUUUc3                 ",
"                 3zPUUUUUUUUUUUAi#                ",
"                OuDUUUUUUUUUUUULh,                ",
"                1vUUUUUUUUUUUUUUCwo               ",
"                aJUUUUUUUUUUUUUUIk:               ",
"               =NUUUUUUUUUUUUUUUUUe               ",
"              OaGUUUUUUUUUUUUUUUUUx*              ",
"              1MUUUUUUUUUUUUUUUUUUDto             ",
"              aKUUUUUUUUUUUUUUUUUUIb:             ",
"             <mUUUUUUUUUUUUUUUUUUUUJr             ",
"            +fHUUUUUUUUUUUUUUUUUUUUUv=            ",
"           .6nUUUUUUUUUUUUUUUUUUUUUUFpo           ",
"           &aSUUUUUUUUUUUUUUUUUUUUUUUx4.          ",
"           5lPUUUUUUUUUUUUUUUUUUUUUUUZi$          ",
"           yDUUUUUUUUUUUUUUUUUUUUUUUULg,          ",
"           MUUUUUUUUUUUUUUUUUUUUUUUUUUD9          ",
"         XuUUUUUUUUUUUUUUUUUUUUUUUUUUUUj#         ",
"         2VUUUUUUUUUUUUUUUUUUUUUUUUUUUUHq         ",
"        @dUUUUUUUUUUUUUUUUUUUUUUUUUUUUUUB;        ",
"       .6nUUUUUUUUUUUUUUUUUUUUUUUUUUUUUUUpo       ",
"       %sDUUUUUUUUUUUUUUUUUUUUUUUUUUUUUUUc3       ",
"       3zPUUUUUUUUUUUUUUUUUUUUUUUUUUUUUUUAi#      ",
"      OuDUUUUUUUUUUUUUUUUUUUUUUUUUUUUUUUULh,      ",
"      1vUUUUUUUUUUUUUUUUUUUUUUUUUUUUUUUUUUCwo     ",
"      aJUUUUUUUUUUUUUUUUUUUUUUUUUUUUUUUUUUIk:     ",
"     =NUUUUUUUUUUUUUUUUUUUUUUUUUUUUUUUUUUUUUe     ",
"    OaGUUUUUUUUUUUUUUUUUUUUUUUUUUUUUUUUUUUUUx*    ",
"    1MUUUUUUUUUUUUUUUUUUUUUUUUUUUUUUUUUUUUUUDto   ",
"    aKUUUUUUUUUUUUUUUUUUUUUUUUUUUUUUUUUUUUUUIb:   ",
"   <mUUUUUUUUUUUUUUUUUUUUUUUUUUUUUUUUUUUUUUUUJr   ",
"  +fHUUUUUUUUUUUUUUUUUUUUUUUUUUUUUUUUUUUUUUUUUv=  ",
" .6nUUUUUUUUUUUUUUUUUUUUUUUUUUUUUUUUUUUUUUUUUUFpo ",
" &aSUUUUUUUUUUUUUUUUUUUUUUUUUUUUUUUUUUUUUUUUUUUx4.",
" 5lPUUUUUUUUUUUUUUUUUUUUUUUUUUUUUUUUUUUUUUUUUUUZi$",
" -0rrrrrrrrrrrrrrrrrrrrrrrrrrrrrrrrrrrrrrrrrrrre7+"
};
