/* XPM */
static char *_2192_9895304b7d20617abbe90da31c3489028809bce416ca77d7b6fd246e5f2377df[] = {
/* columns rows colors chars-per-pixel */
"50 50 78 1 ",
"  c black",
". c #010101",
"X c #020202",
"o c gray1",
"O c #040404",
"+ c #070707",
"@ c gray4",
"# c #0C0C0C",
"$ c #0E0E0E",
"% c gray7",
"& c #131313",
"* c gray8",
"= c #181818",
"- c #191919",
"; c gray10",
": c #1B1B1B",
"> c gray12",
", c gray15",
"< c #2D2D2D",
"1 c #343434",
"2 c gray23",
"3 c #3C3C3C",
"4 c gray24",
"5 c #3E3E3E",
"6 c gray27",
"7 c #464646",
"8 c gray28",
"9 c #484848",
"0 c #494949",
"q c gray29",
"w c #4B4B4B",
"e c #4C4C4C",
"r c #555555",
"t c #565656",
"y c gray35",
"u c #888888",
"i c gray54",
"p c gray55",
"a c #929292",
"s c #939393",
"d c gray59",
"f c #989898",
"g c gray60",
"h c #9A9A9A",
"j c #9B9B9B",
"k c #9D9D9D",
"l c gray64",
"z c #A4A4A4",
"x c #A7A7A7",
"c c #A9A9A9",
"v c #AEAEAE",
"b c #AFAFAF",
"n c #B7B7B7",
"m c LightGray",
"M c #D5D5D5",
"N c #DADADA",
"B c gray86",
"V c gainsboro",
"C c #DDDDDD",
"Z c #DFDFDF",
"A c #E1E1E1",
"S c #E2E2E2",
"D c #E7E7E7",
"F c gray91",
"G c #EAEAEA",
"H c #ECECEC",
"J c gray93",
"K c #EEEEEE",
"L c #F1F1F1",
"P c #F6F6F6",
"I c #F8F8F8",
"U c #F9F9F9",
"Y c gray98",
"T c #FBFBFB",
"R c gray99",
"E c #FDFDFD",
"W c #FEFEFE",
"Q c white",
/* pixels */
"                                                  ",
" 6CQQQQQQQQQQQQQQQQQQQQQQQQQQQQQQQQQQQQQQQQQQQQPs*",
" -kIQQQQQQQQQQQQQQQQQQQQQQQQQQQQQQQQQQQQQQQQQQQNeO",
" OtAQQQQQQQQQQQQQQQQQQQQQQQQQQQQQQQQQQQQQQQQQQRl& ",
"  :vEQQQQQQQQQQQQQQQQQQQQQQQQQQQQQQQQQQQQQQQQQA7  ",
"   tFQQQQQQQQQQQQQQQQQQQQQQQQQQQQQQQQQQQQQQQQQjX  ",
"   @cQQQQQQQQQQQQQQQQQQQQQQQQQQQQQQQQQQQQQQQQG2   ",
"    qKQQQQQQQQQQQQQQQQQQQQQQQQQQQQQQQQQQQQQQTg$   ",
"    &xRQQQQQQQQQQQQQQQQQQQQQQQQQQQQQQQQQQQQQZ4.   ",
"    X9DQQQQQQQQQQQQQQQQQQQQQQQQQQQQQQQQQQQQQf+    ",
"      bQQQQQQQQQQQQQQQQQQQQQQQQQQQQQQQQQQQQL1     ",
"      0HQQQQQQQQQQQQQQQQQQQQQQQQQQQQQQQQQQIi$     ",
"      &hTQQQQQQQQQQQQQQQQQQQQQQQQQQQQQQQQWm5.     ",
"      X8BQQQQQQQQQQQQQQQQQQQQQQQQQQQQQQQQPa*      ",
"       =kUQQQQQQQQQQQQQQQQQQQQQQQQQQQQQQQVwo      ",
"       OrSQQQQQQQQQQQQQQQQQQQQQQQQQQQQQQQz%       ",
"        ;vQQQQQQQQQQQQQQQQQQQQQQQQQQQQQQY7.       ",
"         yYQQQQQQQQQQQQQQQQQQQQQQQQQQQQWvo        ",
"         $nQQQQQQQQQQQQQQQQQQQQQQQQQQQQA,         ",
"          <JQQQQQQQQQQQQQQQQQQQQQQQQQQTu.         ",
"           dQQQQQQQQQQQQQQQQQQQQQQQQQQM3          ",
"           6CQQQQQQQQQQQQQQQQQQQQQQQQPs*          ",
"           -kIQQQQQQQQQQQQQQQQQQQQQQQNeO          ",
"           OtAQQQQQQQQQQQQQQQQQQQQQQRl&           ",
"            :vEQQQQQQQQQQQQQQQQQQQQQA7            ",
"             tFQQQQQQQQQQQQQQQQQQQQQjX            ",
"             @cQQQQQQQQQQQQQQQQQQQQG2             ",
"              qKQQQQQQQQQQQQQQQQQQTg$             ",
"              &xRQQQQQQQQQQQQQQQQQZ4.             ",
"              X9DQQQQQQQQQQQQQQQQQf+              ",
"                bQQQQQQQQQQQQQQQQL1               ",
"                0HQQQQQQQQQQQQQQIi$               ",
"                &hTQQQQQQQQQQQQWm5.               ",
"                X8BQQQQQQQQQQQQPa*                ",
"                 =kUQQQQQQQQQQQVwo                ",
"                 OrSQQQQQQQQQQQz%                 ",
"                  ;vQQQQQQQQQQY7.                 ",
"                   yYQQQQQQQQWvo                  ",
"                   $nQQQQQQQQA,                   ",
"                    <JQQQQQQTu.                   ",
"                     dQQQQQQM3                    ",
"                     6CQQQQPs*                    ",
"                     -kIQQQNeO                    ",
"                     OtAQQRl&                     ",
"                      :vEQA7                      ",
"                       tFQjX                      ",
"                       @cG2                       ",
"                        8p$                       ",
"                        #>.                       ",
"                                                  "
};
