/* XPM */
static char *_0719_da3cc376489fdff74b754eca881dde779075d8a00f4ffd5f31b81d72b9f7f49e[] = {
/* columns rows colors chars-per-pixel */
"32 32 96 2 ",
"   c black",
".  c #010101",
"X  c #040404",
"o  c #070707",
"O  c gray3",
"+  c #090909",
"@  c gray4",
"#  c #0C0C0C",
"$  c gray5",
"%  c gray6",
"&  c #101010",
"*  c gray8",
"=  c gray9",
"-  c #181818",
";  c gray11",
":  c #1E1E1E",
">  c #202020",
",  c gray13",
"<  c #282828",
"1  c #2A2A2A",
"2  c #323232",
"3  c #343434",
"4  c gray21",
"5  c gray22",
"6  c #3E3E3E",
"7  c #3F3F3F",
"8  c gray25",
"9  c #464646",
"0  c gray28",
"q  c #494949",
"w  c #505050",
"e  c gray33",
"r  c #565656",
"t  c gray34",
"y  c #5B5B5B",
"u  c #5F5F5F",
"i  c #606060",
"p  c gray38",
"a  c #646464",
"s  c gray40",
"d  c DimGray",
"f  c #717171",
"g  c gray45",
"h  c #767676",
"j  c #7B7B7B",
"k  c #7C7C7C",
"l  c gray50",
"z  c gray51",
"x  c #848484",
"c  c gray52",
"v  c gray53",
"b  c #8B8B8B",
"n  c #8D8D8D",
"m  c gray56",
"M  c #939393",
"N  c #9F9F9F",
"B  c #A7A7A7",
"V  c gray66",
"C  c gray67",
"Z  c gray68",
"A  c #AFAFAF",
"S  c #B4B4B4",
"D  c #B7B7B7",
"F  c gray72",
"G  c #BBBBBB",
"H  c gray75",
"J  c #C1C1C1",
"K  c gray76",
"L  c #C6C6C6",
"P  c gray78",
"I  c gray81",
"U  c LightGray",
"Y  c #D7D7D7",
"T  c #DDDDDD",
"R  c gray87",
"E  c #DFDFDF",
"W  c #E1E1E1",
"Q  c gray89",
"!  c #E4E4E4",
"~  c #E7E7E7",
"^  c #E9E9E9",
"/  c #EAEAEA",
"(  c #EFEFEF",
")  c gray94",
"_  c #F1F1F1",
"`  c #F3F3F3",
"'  c #F4F4F4",
"]  c gray96",
"[  c #F6F6F6",
"{  c gray97",
"}  c #F9F9F9",
"|  c gray98",
" . c #FBFBFB",
".. c gray99",
"X. c #FDFDFD",
"o. c white",
/* pixels */
"o.o.o.o.o.o.o.o.o.o.o.o.o.o.o.o.o.o.o.o.o.o.o.o.o.o.o.o.o.o.o.o.",
"o.o.o.o.o.o. ._ ( ( ( / E E E ^ ( X.o.o.o.o.o.o.o.o.o.o.o.o.o.o.",
"o.o.o.o.o.o.Y g u u u r 7 7 7 e u k n K  .o.o.o.o.o.o.o.o.o.o.o.",
"o.o.o.o.o.o.H >                     o , w F } o.o.o.o.o.o.o.o.o.",
"o.o.o.o.o.o.H >                           O l { o.o.o.o.o.o.o.o.",
"o.o.o.o.o.o.H >                             # V o.o.o.o.o.o.o.o.",
"o.o.o.o.o.o.H >       # l l l l j 8 @         5 o.o.o.o.o.o.o.o.",
"o.o.o.o.o.o.H >       - o.o.o.o.X.R h @       X I o.o.o.o.o.o.o.",
"o.o.o.o.o.o.H >       - o.o.o.o.o.o.~ 3         N o.o.o.o.o.o.o.",
"o.o.o.o.o.o.H >       - o.o.o.o.o.o.o.9         c o.o.o.o.o.o.o.",
"o.o.o.o.o.o.H >       - o.o.o.o.o.o.] 6         B o.o.o.o.o.o.o.",
"o.o.o.o.o.o.H >       - o.o.o.o.o.o.G :       $ ~ o.o.o.o.o.o.o.",
"o.o.o.o.o.o.H >       - o.o.o.o.o.P 3         f o.o.o.o.o.o.o.o.",
"o.o.o.o.o.o.H >       + u u u u 4         @ y ! o.o.o.o.o.o.o.o.",
"o.o.o.o.o.o.H >                           s W o.o.o.o.o.o.o.o.o.",
"o.o.o.o.o.o.H >                           2 M ) o.o.o.o.o.o.o.o.",
"o.o.o.o.o.o.H >                               u o.o.o.o.o.o.o.o.",
"o.o.o.o.o.o.H >       % N N N N z a 2 $         u [ o.o.o.o.o.o.",
"o.o.o.o.o.o.H >       - o.o.o.o.o.X.T x X         C o.o.o.o.o.o.",
"o.o.o.o.o.o.H >       - o.o.o.o.o.o.o.' p         0 ) o.o.o.o.o.",
"o.o.o.o.o.o.H >       - o.o.o.o.o.o.o.o.P         1 U o.o.o.o.o.",
"o.o.o.o.o.o.H >       - o.o.o.o.o.o.o.o.`         : G o.o.o.o.o.",
"o.o.o.o.o.o.H >       - o.o.o.o.o.o.o.o.(         - A o.o.o.o.o.",
"o.o.o.o.o.o.H >       - o.o.o.o.o.o.o.o.J         ; F o.o.o.o.o.",
"o.o.o.o.o.o.H >       - o.o.o.o.o.o.o.o.i         < I o.o.o.o.o.",
"o.o.o.o.o.o.H >       - o.o.o.o.o. .! m           w } o.o.o.o.o.",
"o.o.o.o.o.o.H >       % B H H Z N v q #         X S o.o.o.o.o.o.",
"o.o.o.o.o.o.H >       . * > > = & o           X b | o.o.o.o.o.o.",
"o.o.o.o.o.o.H >                             O n o.o.o.o.o.o.o.o.",
"o.o.o.o.o.o.H >                       . ; r L ..o.o.o.o.o.o.o.o.",
"o.o.o.o.o.o.I t 7 7 7 7 7 7 7 7 7 r d l D [ o.o.o.o.o.o.o.o.o.o.",
"o.o.o.o.o.o.{ Q E E E E E E E E E / ' X.o.o.o.o.o.o.o.o.o.o.o.o."
};
