/* XPM */
static char *_4921_10a30efa9d8bd6840d8ae382d9f9217af01966a41f6b3f7dd3b529f10964c709[] = {
/* columns rows colors chars-per-pixel */
"32 32 63 1 ",
"  c black",
". c #010101",
"X c #020202",
"o c gray2",
"O c #070707",
"+ c gray3",
"@ c #090909",
"# c gray5",
"$ c gray7",
"% c gray10",
"& c #232323",
"* c gray15",
"= c #313131",
"- c #323232",
"; c gray21",
": c #3F3F3F",
"> c #464646",
", c gray28",
"< c gray31",
"1 c #5A5A5A",
"2 c gray38",
"3 c #6D6D6D",
"4 c #6F6F6F",
"5 c gray44",
"6 c #717171",
"7 c gray45",
"8 c #767676",
"9 c gray48",
"0 c #7C7C7C",
"q c gray49",
"w c #7E7E7E",
"e c gray50",
"r c #808080",
"t c gray51",
"y c #848484",
"u c #8B8B8B",
"i c #8D8D8D",
"p c #8E8E8E",
"a c gray56",
"s c gray57",
"d c #929292",
"f c #939393",
"g c #989898",
"h c #9A9A9A",
"j c gray69",
"k c #B2B2B2",
"l c gray70",
"z c #C0C0C0",
"x c #C1C1C1",
"c c #CACACA",
"v c #CBCBCB",
"b c #CDCDCD",
"n c #D5D5D5",
"m c #D7D7D7",
"M c gray89",
"N c #E4E4E4",
"B c #E7E7E7",
"V c gray91",
"C c #F3F3F3",
"Z c gray96",
"A c gray97",
"S c gray99",
"D c white",
/* pixels */
"DDDDDDDDwo             2DDDDDDDD",
"DDDDDDDlo              otDDDDDDD",
"DDDDDDD8 <aaaaaaaaaaaeo  3DDDDDD",
"DDDDk76= hDDDDDDDDDDDAO+. 1SDDDD",
"DDDk     pDDDDDDDDDDDN &c* ,CDDD",
"DDD3 <a: pDj6666666rDBo@q>  ;MDD",
"DDD5 hD9 pD1        DV       uDD",
"DDD6 pD6 pDzaaaaaaahDZdaaaa: iDD",
"DDD6 pD6 pDDDDDDDDDDDDDDDDD9 pDD",
"DDD6 pD6 pDDDDDDDDDDDDDDDDD6 pDD",
"DDD6 pD6 pDDDDDDDDDDDDDDDDD6 pDD",
"DDD6 pD6 pDj6666666666666zD6 pDD",
"DDD6 pD6 pD1             0D6 pDD",
"DDD6 pD6 pDzaaaaaaaaaaaaabD6 pDD",
"DDD6 pD6 pDDDDDDDDDDDDDDDDD6 pDD",
"DDD6 pD6 pDj6666666666666zD6 pDD",
"DDD6 pD6 pD1             0D6 pDD",
"DDD6 pD6 pDzaaaaaaaaaaaaabD6 pDD",
"DDD6 pD6 pDDDDDDDDDDDDDDDDD6 pDD",
"DDD6 pD6 pDj6666666666666zD6 pDD",
"DDD6 pD6 pD1             0D6 pDD",
"DDD6 pD6 pDzaaaaaaaaaaaaabD6 pDD",
"DDD6 pD6 pDDDDDDDDDDDDDDDDD6 pDD",
"DDD6 pD6 pDDDDDDDDDDDDDDDDD6 pDD",
"DDD6 pD6 pDDDDDDDDDDDDDDDDD6 pDD",
"DDD6 pD5 hDDDDDDDDDDDDDDDDD9 iDD",
"DDD6 pD4 :66666666666666666- pDD",
"DDD6 pDzX                   #nDD",
"DDD6 pDDvsaaaaaaaaaaaaaa: <fmDDD",
"DDD5 hDDDDDDDDDDDDDDDDDDy gDDDDD",
"DDD4 :666666666666666666- pDDDDD",
"DDDx$                    %nDDDDD"
};
