/* XPM */
static char *_69_b493dfef5d95db550ed3698d7fc666adc777d929ee5f2cad3409c185092b6056[] = {
/* columns rows colors chars-per-pixel */
"32 32 72 1 ",
"  c black",
". c #010101",
"X c #020202",
"o c gray1",
"O c #040404",
"+ c gray3",
"@ c gray4",
"# c #0C0C0C",
"$ c gray5",
"% c #111111",
"& c #151515",
"* c #161616",
"= c #282828",
"- c gray16",
"; c gray17",
": c #2C2C2C",
"> c #2F2F2F",
", c gray19",
"< c #313131",
"1 c #373737",
"2 c gray22",
"3 c #3E3E3E",
"4 c #414141",
"5 c #4B4B4B",
"6 c #4C4C4C",
"7 c #585858",
"8 c gray42",
"9 c #6D6D6D",
"0 c #777777",
"q c #7C7C7C",
"w c #7E7E7E",
"e c gray53",
"r c #8B8B8B",
"t c gray55",
"y c #989898",
"u c gray60",
"i c #9A9A9A",
"p c #9F9F9F",
"a c #A5A5A5",
"s c #A9A9A9",
"d c #BCBCBC",
"f c gray75",
"g c gray77",
"h c #C6C6C6",
"j c gray78",
"k c gray80",
"l c #CDCDCD",
"z c gray82",
"x c gray83",
"c c #D8D8D8",
"v c gray85",
"b c #DDDDDD",
"n c #DFDFDF",
"m c gray88",
"M c gray89",
"N c #E9E9E9",
"B c #EAEAEA",
"V c gray92",
"C c #ECECEC",
"Z c gray93",
"A c #EEEEEE",
"S c #EFEFEF",
"D c gray94",
"F c gray95",
"G c #F4F4F4",
"H c #F6F6F6",
"J c gray97",
"K c #F9F9F9",
"L c gray98",
"P c gray99",
"I c #FDFDFD",
"U c white",
/* pixels */
"Um>X............... OjUUUn3eUUUU",
"v,.                XrPUUK< @uUUU",
"= ..X............XotUUUGUp. oyUU",
" .oallllllllllllllxUUUN=9UsX oyU",
"..ocUUUUUUUUUUUUUUUUUN: .0UsX oi",
"..olUUUUUUUUUUUUUUUUN: . .0UsX X",
"..olUUUUUUUUUUUUUUUN: ... .0Us. ",
"..olUUUUUUUUUUUUUUN: ..... .0Up4",
"..olUUUUUUUUUUUUUN: ....... .8UU",
"..olUUUUUUUUUUUUN: ......... ;FU",
"..olUUUUUUUUUUUN: ......... 2SUU",
"..olUUUUUUUUUUN: ......... 2DUUU",
"..olUUUUUUUUUN: ......... 2DUUUq",
"..olUUUUUUUUN: ......... 2DUUPwX",
"..olUUUUUUUN: ......... 2DUUUkX ",
"..olUUUUUUN: ......... 2DUUUUg..",
"..olUUUUUN: ......... 2DUUUUUhX.",
"..olUUUUM: ......... 2DUUUUUUhX.",
"..olUUUU1 ......... 2DUUUUUUUhX.",
"..olUUZLd# ....... 2DUUUUUUUUhX.",
"..olUJ=6Uj# ..... 2DUUUUUUUUUhX.",
"..olUB+ 7Uj# ... 2DUUUUUUUUUUhX.",
"..olUC%. 7Uj# . 2DUUUUUUUUUUUhX.",
"..olUC%.  7Uj$ 2DUUUUUUUUUUUUhX.",
"..olUC%..  7Uf6DUUUUUUUUUUUUUhX.",
"..olUV+     5IUUUUUUUUUUUUUUUhX.",
"..olUF-*&&&*1AUUUUUUUUUUUUUUUhX.",
"..olUUHFFFFFUUUUUUUUUUUUUUUUUhX.",
"..ovUUUUUUUUUUUUUUUUUUUUUUUUUzX.",
" .ophhhhhhhhhhhhhhhhhhhhhhhhhiX ",
": ............................  ",
"b1X                           o3"
};
