/* XPM */
static char *_8235_0b2d8bb82418c85809e7ffe626f8d04499e1c6ffe9aa79078dfc1fe46ca21800[] = {
/* columns rows colors chars-per-pixel */
"32 32 78 1 ",
"  c black",
". c #010101",
"X c #040404",
"o c #070707",
"O c #090909",
"+ c gray4",
"@ c #0B0B0B",
"# c gray5",
"$ c #0E0E0E",
"% c #101010",
"& c #131313",
"* c #161616",
"= c #191919",
"- c gray10",
"; c #202020",
": c #282828",
"> c gray16",
", c #323232",
"< c gray21",
"1 c #3F3F3F",
"2 c gray28",
"3 c #484848",
"4 c #4E4E4E",
"5 c gray34",
"6 c #585858",
"7 c #5D5D5D",
"8 c gray37",
"9 c #686868",
"0 c DimGray",
"q c gray42",
"w c #6D6D6D",
"e c gray43",
"r c gray49",
"t c gray50",
"y c #808080",
"u c #818181",
"i c #838383",
"p c gray53",
"a c #909090",
"s c #939393",
"d c gray58",
"f c #989898",
"g c #9D9D9D",
"h c gray64",
"j c gray68",
"k c #B1B1B1",
"l c gray70",
"z c #B4B4B4",
"x c #B6B6B6",
"c c #B7B7B7",
"v c gray75",
"b c #C0C0C0",
"n c gray76",
"m c #CBCBCB",
"M c LightGray",
"N c gray85",
"B c #DDDDDD",
"V c gray87",
"C c #E1E1E1",
"Z c #E2E2E2",
"A c gray89",
"S c gray90",
"D c #E6E6E6",
"F c #E7E7E7",
"G c gray91",
"H c #EAEAEA",
"J c gray92",
"K c gray94",
"L c #F3F3F3",
"P c #F4F4F4",
"I c gray96",
"U c #F6F6F6",
"Y c #F8F8F8",
"T c gray98",
"R c #FBFBFB",
"E c #FDFDFD",
"W c #FEFEFE",
"Q c white",
/* pixels */
"QQQQQQQQQQQQQQQQQQQQQQQQQQQQQQQQ",
"QQQQQQQQQQQQQQQQQQQQQQQQQQQQQQQQ",
"QQQQQQQQQQQQQQQQQQQQQQQQQQQQQQQQ",
"QQQQQQQQQQQQQQQQQQQQQIZACEQQQQQQ",
"QnsddddddddddddaWQQQQf   HQQQQQQ",
"Qw              EQQQQg   JQQQQQQ",
"Qe              EQV2xB  XQv4bQQQ",
"Qe   o+++++++++ EQ1  6> 3u  ;QQQ",
"Qe   hGGGGGGGGGFQK+   O +    mQQ",
"Qe   lQQQQQQQQQQQD8=      +:pLQQ",
"Qe   lQQQQQQQQQQQQQQQ0   5TQQQQQ",
"Qe   lQQQQQQQQQQQQQM-  ,  *lQQQQ",
"Qe   jUUUUUUUWQQQQH.  $E   &PQQQ",
"Qe   @%%%%%%%FQQQQQ1  yQ9  <RQQQ",
"Qe           SQQQQQY57QQU#iQQQQQ",
"Qe           SQQQQQQQQQQQQQQQQQQ",
"Qe   9dddddddPQQQQQQQQQQQQQQQQQQ",
"Qe   zQQQQQQQQQQQQQQQQQQQQQQQQQQ",
"Qe   lQQQQQQQQQQQQQQQQQQQQQQQQQQ",
"Qe   lQQQQQQQQQQQQQQQQQQQQQQQQQQ",
"Qe   lQQQQQQQQQQQQQQQQQQQQQQQQQQ",
"Qe   lQQQQQQQQQQQQQQQQQQQQQQQQQQ",
"Qe   lQQQQQQQQQQQQQQQQQQQQQQQQQQ",
"Qe   lQQQQQQQQQQQQQQQQQQQQQQQQQQ",
"Qe   lQQQQQQQQQQQQQQQQQQQQQQQQQQ",
"Qq   kQQQQQQQQQQQQQQQQQQQQQQQQQQ",
"QcrttNQQQQQQQQQQQQQQQQQQQQQQQQQQ",
"QQQQQQQQQQQQQQQQQQQQQQQQQQQQQQQQ",
"QQQQQQQQQQQQQQQQQQQQQQQQQQQQQQQQ",
"QQQQQQQQQQQQQQQQQQQQQQQQQQQQQQQQ",
"QQQQQQQQQQQQQQQQQQQQQQQQQQQQQQQQ",
"QQQQQQQQQQQQQQQQQQQQQQQQQQQQQQQQ"
};
