/* XPM */
static char *_1640_8416a2beabe407a6ea4b399879bafb0f686e0ca0e4133bac84bac65f435de33a[] = {
/* columns rows colors chars-per-pixel */
"32 32 53 1 ",
"  c black",
". c #010101",
"X c #040404",
"o c gray2",
"O c #060606",
"+ c #0C0C0C",
"@ c #0E0E0E",
"# c gray6",
"$ c #101010",
"% c #111111",
"& c gray7",
"* c #131313",
"= c gray8",
"- c #161616",
"; c gray9",
": c gray10",
"> c gray11",
", c #1D1D1D",
"< c #1E1E1E",
"1 c #202020",
"2 c #222222",
"3 c #252525",
"4 c #282828",
"5 c #939393",
"6 c gray58",
"7 c #9B9B9B",
"8 c gray62",
"9 c #9F9F9F",
"0 c #A2A2A2",
"q c #A4A4A4",
"w c gray66",
"e c #A9A9A9",
"r c gray68",
"t c #AEAEAE",
"y c #B2B2B2",
"u c gray70",
"i c #B4B4B4",
"p c #B6B6B6",
"a c gray72",
"s c gray73",
"d c #BBBBBB",
"f c gray",
"g c gray75",
"h c #C0C0C0",
"j c gray77",
"k c #CACACA",
"l c gray80",
"z c gray82",
"x c #FBFBFB",
"c c gray99",
"v c #FDFDFD",
"b c #FEFEFE",
"n c white",
/* pixels */
"nnnnnnnnnnnnnnnnnnnnnnnnnnnnnvi ",
"nnnnnnnnnnnnnnnnnnnnnnnnnnnxwo  ",
"nnnnnnnnnnnnnnnnnnnnnnnnnv0*    ",
"nnnnnnnnnnnnnnnnnnnnnnnn0+      ",
"nnnnnnnnnnnnnnnnnnnnnc8-        ",
"nnnnnnnnnnnnnnnnnnnn5-          ",
"nnnnnnnnnnnnnnnnnbe@            ",
"nnnnnnnnnnnnnnnnqX              ",
"nnnnnnnnnnnnnn9+                ",
"nnnnnnnnnnnxyo                  ",
"nnnnnnnnnc0%                    ",
"nnnnnnnn9$                      ",
"nnnnnv9&                        ",
"nnnn7-                          ",
"nn6*                            ",
"l                               ",
"4                               ",
"nk-                             ",
"nnnt1.                          ",
"nnnnnu3                         ",
"nnnnnnva-                       ",
"nnnnnnnnnf:                     ",
"nnnnnnnnnnbs<                   ",
"nnnnnnnnnnnnnzO                 ",
"nnnnnnnnnnnnnnnf=               ",
"nnnnnnnnnnnnnnnnns;             ",
"nnnnnnnnnnnnnnnnnnnd,           ",
"nnnnnnnnnnnnnnnnnnnnnr2         ",
"nnnnnnnnnnnnnnnnnnnnnnvp3       ",
"nnnnnnnnnnnnnnnnnnnnnnnnnh%     ",
"nnnnnnnnnnnnnnnnnnnnnnnnnnng>   ",
"nnnnnnnnnnnnnnnnnnnnnnnnnnnnnj# "
};
