/* XPM */
static char *_128_648a14ededcbc1ac9d4fed9495c25ec678b1bd871d516fc7344b0edaab6ddd24[] = {
/* columns rows colors chars-per-pixel */
"32 32 53 1 ",
"  c black",
". c #010101",
"X c #040404",
"o c gray2",
"O c #060606",
"+ c #0C0C0C",
"@ c #0E0E0E",
"# c gray6",
"$ c #101010",
"% c #111111",
"& c gray7",
"* c #131313",
"= c gray8",
"- c #161616",
"; c gray9",
": c gray10",
"> c gray11",
", c #1D1D1D",
"< c #1E1E1E",
"1 c #202020",
"2 c #222222",
"3 c #252525",
"4 c #282828",
"5 c #939393",
"6 c gray58",
"7 c #9B9B9B",
"8 c gray62",
"9 c #9F9F9F",
"0 c #A2A2A2",
"q c #A4A4A4",
"w c gray66",
"e c #A9A9A9",
"r c gray68",
"t c #AEAEAE",
"y c #B2B2B2",
"u c gray70",
"i c #B4B4B4",
"p c #B6B6B6",
"a c gray72",
"s c gray73",
"d c #BBBBBB",
"f c gray",
"g c gray75",
"h c #C0C0C0",
"j c gray77",
"k c #CACACA",
"l c gray80",
"z c gray82",
"x c #FBFBFB",
"c c gray99",
"v c #FDFDFD",
"b c #FEFEFE",
"n c white",
/* pixels */
" #jnnnnnnnnnnnnnnnnnnnnnnnnnnnnn",
"   >gnnnnnnnnnnnnnnnnnnnnnnnnnnn",
"     %hnnnnnnnnnnnnnnnnnnnnnnnnn",
"       3pvnnnnnnnnnnnnnnnnnnnnnn",
"         2rnnnnnnnnnnnnnnnnnnnnn",
"           ,dnnnnnnnnnnnnnnnnnnn",
"             ;snnnnnnnnnnnnnnnnn",
"               =fnnnnnnnnnnnnnnn",
"                 Oznnnnnnnnnnnnn",
"                   <sbnnnnnnnnnn",
"                     :fnnnnnnnnn",
"                       -avnnnnnn",
"                         3unnnnn",
"                          .1tnnn",
"                             -kn",
"                               4",
"                               l",
"                            *6nn",
"                          -7nnnn",
"                        &9vnnnnn",
"                      $9nnnnnnnn",
"                    %0cnnnnnnnnn",
"                  oyxnnnnnnnnnnn",
"                +9nnnnnnnnnnnnnn",
"              Xqnnnnnnnnnnnnnnnn",
"            @ebnnnnnnnnnnnnnnnnn",
"          -5nnnnnnnnnnnnnnnnnnnn",
"        -8cnnnnnnnnnnnnnnnnnnnnn",
"      +0nnnnnnnnnnnnnnnnnnnnnnnn",
"    *0vnnnnnnnnnnnnnnnnnnnnnnnnn",
"  owxnnnnnnnnnnnnnnnnnnnnnnnnnnn",
" ivnnnnnnnnnnnnnnnnnnnnnnnnnnnnn"
};
