/* XPM */
static char *_7628_03ad7c77f74a435c23671f157bc1cf59b01da6c4e65f24b3bcd053de17724a2f[] = {
/* columns rows colors chars-per-pixel */
"32 32 76 1 ",
"  c black",
". c #010101",
"X c #020202",
"o c gray1",
"O c #040404",
"+ c gray2",
"@ c #060606",
"# c #070707",
"$ c #090909",
"% c gray4",
"& c gray5",
"* c #0E0E0E",
"= c gray6",
"- c #101010",
"; c #131313",
": c gray8",
"> c #151515",
", c #161616",
"< c gray9",
"1 c #181818",
"2 c gray10",
"3 c gray11",
"4 c #1D1D1D",
"5 c #282828",
"6 c gray16",
"7 c #2A2A2A",
"8 c #2C2C2C",
"9 c #2F2F2F",
"0 c #313131",
"q c #343434",
"w c #353535",
"e c gray21",
"r c gray24",
"t c gray26",
"y c #4C4C4C",
"u c gray32",
"i c #626262",
"p c gray40",
"a c #676767",
"s c #686868",
"d c DimGray",
"f c #7C7C7C",
"g c #868686",
"h c #888888",
"j c gray55",
"k c #8D8D8D",
"l c #8E8E8E",
"z c gray56",
"x c gray57",
"c c gray58",
"v c #9D9D9D",
"b c gray62",
"n c #9F9F9F",
"m c gray63",
"M c #A2A2A2",
"N c #A5A5A5",
"B c #A9A9A9",
"V c #AAAAAA",
"C c #C8C8C8",
"Z c gray79",
"A c #CBCBCB",
"S c #D5D5D5",
"D c #D8D8D8",
"F c gray85",
"G c gainsboro",
"H c #EAEAEA",
"J c gray92",
"K c #ECECEC",
"L c gray93",
"P c #EFEFEF",
"I c gray94",
"U c #F3F3F3",
"Y c gray99",
"T c #FDFDFD",
"R c #FEFEFE",
"E c white",
/* pixels */
"EEEEEEEEEEEEEEEEEEEEEEEEEEEEEEEE",
"EEECkgggggggggggggggggggggggxDEE",
"EEB3wwwwwwwwwwwwwwwwwwwwwwwe94AE",
"EY7&$@#####################@%%uE",
"EL,oOOOOOOOOOOOOOOOOOOOOOOOOOoqR",
"EJ<O+++++++++++++++++++++++++oeY",
"EJ<O+++++++++++++++++++++++++oeY",
"EJ<O+++++++++++++++++++++++++oeY",
"EJ<O+++++++++++++++++++++++++oeY",
"EJ<O+++++++++++++++++++++++++oeY",
"EJ<O+++++++++++++++++++++++++oeY",
"EJ<O+++++++++++++++++++++++++oeY",
"EJ<O+++++++++++++++++++++++++oeY",
"EJ<O+++++++++++++++++++++++++oeY",
"EJ<O.           +++++++++++++oeY",
"EJ1 o80000000002 ++++++++++++oeY",
"EJ<2ZEEEEEEEEEEIa +++++++++++oeY",
"EK,fEEEEEEEEEEEEH%.++++++++++oeY",
"EK,zEEEEEEEEEEEEP: ++++++++++oeY",
"EK,jEEEEEEEEEEEEK; ++++++++++oeY",
"EK,jEEEEEEEEEEEEK; ++++++++++oeY",
"EK,jEEEEEEEEEEEEK; ++++++++++oeY",
"EK,jEEEEEEEEEEEEK; ++++++++++oeY",
"EK,jEEEEEEEEEEEEK; ++++++++++oeY",
"EK,jEEEEEEEEEEEEK; ++++++++++oeY",
"EK,jEEEEEEEEEEEEK; ++++++++++oeY",
"EJ>lEEEEEEEEEEEEL: ++++++++++owY",
"EP>hEEEEEEEEEEEEI* ++++++++++XwT",
"ETt0UEEEEEEEEEEEc oOOOOOOOOOOXpE",
"EEZ65idsssssssay@=----------&rSE",
"EEEFNvbbbbbbbbbbnMMMMMMMMMMmVGTE",
"EEEEERRRRRRRRRRRRRRRRRRRRRRREEEE"
};
