/* XPM */
static char *_4206_81e5a05857e7eb344608e7274ba24638d43c07b087123f783d476a43453fb0d0[] = {
/* columns rows colors chars-per-pixel */
"32 32 142 2 ",
"   c black",
".  c #010101",
"X  c #020202",
"o  c #040404",
"O  c gray2",
"+  c #060606",
"@  c #070707",
"#  c gray3",
"$  c #090909",
"%  c gray4",
"&  c #0C0C0C",
"*  c #0E0E0E",
"=  c gray6",
"-  c #101010",
";  c #111111",
":  c gray7",
">  c #131313",
",  c #151515",
"<  c #181818",
"1  c gray10",
"2  c #1B1B1B",
"3  c #1E1E1E",
"4  c gray12",
"5  c #202020",
"6  c gray13",
"7  c #222222",
"8  c #232323",
"9  c #252525",
"0  c gray16",
"q  c gray17",
"w  c #2C2C2C",
"e  c #2F2F2F",
"r  c gray19",
"t  c #313131",
"y  c gray20",
"u  c gray21",
"i  c #373737",
"p  c #3A3A3A",
"a  c #3C3C3C",
"s  c #3E3E3E",
"d  c gray25",
"f  c #414141",
"g  c #434343",
"h  c #444444",
"j  c gray27",
"k  c #464646",
"l  c #484848",
"z  c #494949",
"x  c gray29",
"c  c #4B4B4B",
"v  c #4C4C4C",
"b  c gray30",
"n  c gray31",
"m  c gray32",
"M  c #535353",
"N  c gray33",
"B  c #555555",
"V  c #585858",
"C  c gray35",
"Z  c #5D5D5D",
"A  c gray37",
"S  c gray38",
"D  c #626262",
"F  c #646464",
"G  c #656565",
"H  c #6D6D6D",
"J  c #6F6F6F",
"K  c gray44",
"L  c #717171",
"P  c #747474",
"I  c #767676",
"U  c #777777",
"Y  c gray48",
"T  c #7B7B7B",
"R  c gray49",
"E  c gray50",
"W  c gray51",
"Q  c gray52",
"!  c #8B8B8B",
"~  c #8D8D8D",
"^  c #939393",
"/  c gray58",
"(  c #959595",
")  c gray60",
"_  c #9A9A9A",
"`  c #9D9D9D",
"'  c gray62",
"]  c #9F9F9F",
"[  c #A5A5A5",
"{  c #A9A9A9",
"}  c #ACACAC",
"|  c #AEAEAE",
" . c #AFAFAF",
".. c #B1B1B1",
"X. c #B2B2B2",
"o. c #B4B4B4",
"O. c #B6B6B6",
"+. c #B7B7B7",
"@. c #BCBCBC",
"#. c gray74",
"$. c gray75",
"%. c #C0C0C0",
"&. c gray76",
"*. c gray77",
"=. c #C6C6C6",
"-. c #C8C8C8",
";. c gray79",
":. c #CBCBCB",
">. c #CECECE",
",. c gray81",
"<. c #D0D0D0",
"1. c gray82",
"2. c #D2D2D2",
"3. c LightGray",
"4. c #D5D5D5",
"5. c #D8D8D8",
"6. c gray85",
"7. c gray87",
"8. c #DFDFDF",
"9. c gray88",
"0. c #E1E1E1",
"q. c #E2E2E2",
"w. c #E4E4E4",
"e. c gray90",
"r. c #E6E6E6",
"t. c gray91",
"y. c #E9E9E9",
"u. c #EAEAEA",
"i. c #ECECEC",
"p. c gray93",
"a. c gray95",
"s. c #F3F3F3",
"d. c #F4F4F4",
"f. c gray97",
"g. c #F8F8F8",
"h. c #F9F9F9",
"j. c gray98",
"k. c #FBFBFB",
"l. c gray99",
"z. c #FDFDFD",
"x. c #FEFEFE",
"c. c white",
/* pixels */
"c.c.c.c.c.c.c.c.c.c.c.c.c.c.c.c.j.c.c.c.c.c.c.c.c.c.c.c.c.c.c.c.",
"c.c.c.c.c.c.c.c.c.c.c.c.c.h.M w 8 0 a 9.c.c.c.c.c.c.c.c.c.c.c.c.",
"c.c.c.c.c.c.c.c.c.c.c.c.c.r.          #.c.c.c.c.c.c.c.c.c.c.c.c.",
"c.c.c.c.c.c.c.c.c.c.c.c.c.2.  . . . . [ c.c.c.c.c.c.c.c.c.c.c.c.",
"c.c.c.c.c.c.1.u ( c.c.c.c.-.  . . . . ^ c.c.c.c.@.y } c.c.c.c.c.",
"c.c.c.c.c.=.-     K c.c.5.G . . . . . g -.c.c.( X     ' c.c.c.c.",
"c.c.c.c.,.-   .     c Z o   . . . . .     z D     .     } c.c.c.",
"c.c.c.c.x   . . .           . . . . . .         . . .   < f.c.c.",
"c.c.c.c.<.*   . . . . . .               . . . . . .     } c.c.c.",
"c.c.c.c.c.o.. . . . . .     1 c S m 9       . . . .   Q c.c.c.c.",
"c.c.c.c.c.c.Q . . . .   2 ] s.c.c.c.l.O.y     . . . B c.c.c.c.c.",
"c.c.c.c.c.c.U . . .   r e.c.c.c.c.c.c.c.h.N   . . . k c.c.c.c.c.",
"c.c.c.c.c.g.& . . . : w.c.c.c.c.c.c.c.c.c.l.t   . .   >.c.c.c.c.",
"c.p.:.o.) A   . .   ~ c.c.c.c.c.c.c.c.c.c.c.%.  . .   f ^ | =.w.",
"c.F         . . . % t.c.c.c.c.c.c.c.c.c.c.c.c.0 . . .         i ",
"c.j       . . . . e c.c.c.c.c.c.c.c.c.c.c.c.c.A . . . .       6 ",
"c.d . . . . . . . s c.c.c.c.c.c.c.c.c.c.c.c.c.J . . . . . . . 4 ",
"c.j         . . . q c.c.c.c.c.c.c.c.c.c.c.c.c.C . . .         5 ",
"c.L #         . . @ 0.c.c.c.c.c.c.c.c.c.c.c.x.7 . . .       O k ",
"c.h.q.>.+.I   . .   R c.c.c.c.c.c.c.c.c.c.c...  . .   N X.;.7.d.",
"c.c.c.c.c.z.> . . . % 3.c.c.c.c.c.c.c.c.c.a.8   . .   5.c.c.c.c.",
"c.c.c.c.c.c.Q . . .   3 1.c.c.c.c.c.c.c.u.s   . . . m c.c.c.c.c.",
"c.c.c.c.c.c.P . . . .   % W 8.c.c.c.u._ 3   . . . . l c.c.c.c.c.",
"c.c.c.c.c.`   . . . . .     # r g i ;     . . . . .   H c.c.c.c.",
"c.c.c.c.@.o   . . .     .               . .   . . .     / x.c.c.",
"c.c.c.c.v   . . .           . . . . .           . . .   2 f.c.c.",
"c.c.c.c.0.3   .     G T ,   . . . . .   $ G E     .   + &.c.c.c.",
"c.c.c.c.c.6.5     ! c.c.i.Y . . . . . m 9.c.c. .=   $ O.c.c.c.c.",
"c.c.c.c.c.c.w.n | c.c.c.c.;.  . . . . ( c.c.c.c.3.b *.c.c.c.c.c.",
"c.c.c.c.c.c.c.c.c.c.c.c.c.4.. . . . . { c.c.c.c.c.c.c.c.c.c.c.c.",
"c.c.c.c.c.c.c.c.c.c.c.c.c.y.          $.c.c.c.c.c.c.c.c.c.c.c.c.",
"c.c.c.c.c.c.c.c.c.c.c.c.c.k.H h p f V r.c.c.c.c.c.c.c.c.c.c.c.c."
};
