/* XPM */
static char *_5841_2e051134e184ce603aabfa634589801bb009ab3be1d69007d7063cb5a2b52bca[] = {
/* columns rows colors chars-per-pixel */
"32 32 75 1 ",
"  c black",
". c #010101",
"X c #020202",
"o c gray1",
"O c #040404",
"+ c gray2",
"@ c #060606",
"# c #0E0E0E",
"$ c #131313",
"% c gray9",
"& c gray11",
"* c #1D1D1D",
"= c gray12",
"- c #222222",
"; c #252525",
": c #2D2D2D",
"> c #343434",
", c #393939",
"< c #3F3F3F",
"1 c gray25",
"2 c #434343",
"3 c #444444",
"4 c gray27",
"5 c #4E4E4E",
"6 c gray31",
"7 c #515151",
"8 c #535353",
"9 c #5D5D5D",
"0 c #606060",
"q c #676767",
"w c #727272",
"e c gray45",
"r c #777777",
"t c #7B7B7B",
"y c #7C7C7C",
"u c gray49",
"i c gray50",
"p c gray56",
"a c #909090",
"s c gray58",
"d c #9B9B9B",
"f c #9D9D9D",
"g c #9F9F9F",
"h c gray63",
"j c #A9A9A9",
"k c #AEAEAE",
"l c #B1B1B1",
"z c gray73",
"x c gray",
"c c gray75",
"v c #C0C0C0",
"b c gray76",
"n c #C3C3C3",
"m c gray77",
"M c gray79",
"N c #CECECE",
"B c #D5D5D5",
"V c gray85",
"C c #DADADA",
"Z c #DFDFDF",
"A c #E1E1E1",
"S c #E2E2E2",
"D c gray89",
"F c gray90",
"G c #E9E9E9",
"H c gray95",
"J c #F3F3F3",
"K c #F4F4F4",
"L c #F6F6F6",
"P c gray97",
"I c #F9F9F9",
"U c gray98",
"Y c #FBFBFB",
"T c #FDFDFD",
"R c white",
/* pixels */
"RRRRRRRRRRRRRRRRRRRRRRRRRRRRRRRR",
"RRRRRRRRRRRRRRRRRRRRRRRRRRRRRRRR",
"RRRRRRRRRRRRRRRRRRRRRRRRRRRRRRRR",
"RRRRRRRRRRRRRRRRRRRRRRRRRRRRRRRR",
"RRRRRRRRRRRRRRRRRRRRRRRRRRRRRRRR",
"RRRRRRRRRRRRRRHMccccccccvKRRRRRR",
"RRRRRRRRRRRRRRC:        .VRRRRRR",
"RRRRRRRRRRRRRRIa        uPRRRRRR",
"RRRRRRRRRRRRRRRRw      tRRRRRRRR",
"RRRRRRRRRRRRRRRRR5@  O6DRRRRRRRR",
"RRRRRRRRRRRRRRRRRF7o >NRRRRRRRRR",
"RRRRRRRRRRRRRRRRRRS,$BRRRRRRRRRR",
"RRRRRRRRRRRRRRRRRRRRRRRRRRRRRRRR",
"RRRRRRRRRRRRGYRRRRRRRRRRRRRRRRRR",
"RRRRRRRRRRRJ8hRRRRRRRRRRRRRRRRRR",
"RRRRRRRRRRRs 3RRRRRRRRRRRRRRRRRR",
"RRRRRRRRRRR1 *zRRRRRRRRRRRRRRRRR",
"RRRRRRRRRRx=%XiTRRRRRRRRRRRRRRRR",
"RRRRRRRRRYy.s 2ARRRRRRRRRRRRRRRR",
"RRRRRRRRRZ1.H2@bRRRRRRRRRRRRRRRR",
"RRRRRRRRRx ;Rc 0RRRRRRRRRRRRRRRR",
"RRRRRRRRRe gYn#+KRRRRRRRRRRRRRRR",
"RRRRRRRRR  9rq& pRRRRRRRRRRRRRRR",
"RRRRRRRRt       $YRRRRRRRRRRRRRR",
"RRRRRRRRO iRRRM; bRRRRRRRRRRRRRR",
"RRRRRRRl -mRRRR4 <TRRRRRRRRRRRRR",
"RRRRRRRkidLRRRRjifURRRRRRRRRRRRR",
"RRRRRRRRRRRRRRRRRRRRRRRRRRRRRRRR",
"RRRRRRRRRRRRRRRRRRRRRRRRRRRRRRRR",
"RRRRRRRRRRRRRRRRRRRRRRRRRRRRRRRR",
"RRRRRRRRRRRRRRRRRRRRRRRRRRRRRRRR",
"RRRRRRRRRRRRRRRRRRRRRRRRRRRRRRRR"
};
